<svg version="1.0" xmlns="http://www.w3.org/2000/svg" width="1346.667" height="1706.667" viewBox="0 0 1010 1280"><path d="M837 1.4c-59.1 8.6-109.6 46.4-136 102-26.5 55.7-22.7 119.4 10.1 167.8 8.4 12.4 26.6 30.5 38.8 38.7 41.4 27.5 90.7 33.3 139.6 16.4 76.9-26.7 128.3-107.5 119.4-188.1-2.2-19.8-6.9-36.2-15.4-53.7C972.6 41.7 935.6 13 888.2 3 875.5.3 850.2-.5 837 1.4zm41.9 17.2c80.2 11.9 129.8 91.3 109.4 175.4-7.2 29.6-22 55.7-44.3 78-16.9 16.9-33.9 28.2-54.5 36.3-38.6 15.2-79 14.1-114-3.3-38.8-19.2-65.1-55.1-73.1-99.5-2.4-13.3-2.4-38.3 0-51.5 11.3-63.3 56.5-114.4 116.1-131.4 19.2-5.5 40.7-6.9 60.4-4zM362 19c-27 4.2-53 27.8-62 56.1-4.7 15-6.4 38.2-4 55.4 4.6 31.9 18.9 57.3 40.2 71.3 32.5 21.1 66.9 18.6 92.9-6.8 20.7-20.2 29.1-44.1 27.6-78-1.5-33.2-13.9-62.2-33.4-78.4-8.2-6.8-24.1-15.1-33.5-17.5-9.1-2.4-20.6-3.2-27.8-2.1zm26.9 19.6c19.9 6.7 34 19.9 42.3 39.6 10.3 24.5 11.6 57.2 3.3 79.5-6.6 17.4-22.1 33.2-38.4 38.9-7.5 2.7-19.8 3.2-27.9 1.3-7.1-1.7-19.9-8-27-13.3-11.3-8.4-20.8-24.3-25.9-43.4-2.4-8.8-2.7-11.5-2.7-29.2-.1-17.5.1-20.3 2.2-27.4 4.5-15.7 13.8-29.7 25.4-38.2 15.3-11.2 30.9-13.7 48.7-7.8zm160-17.6c-6.4 1-17.5 5-22.8 8.2-28.4 17-49.2 55.7-50.8 94.3-.6 13.9.4 23.3 3.6 33.2 6.7 20.8 22.9 39.6 43.1 49.8 14.4 7.3 28.4 10.1 45.8 9.2 15.4-.8 23.3-3.3 35.2-11.2 24.3-16.1 43.4-51.4 46.9-86.6 1-9.9-.1-25.9-2.4-34.4-7.7-29.5-33.1-53.5-64.5-61-7.9-1.9-26.5-2.7-34.1-1.5zm32.6 18.4c3.3.9 9.8 3.5 14.5 5.8 6.8 3.4 10.2 5.9 17 12.8 16.2 16.2 22.6 34.9 20 58.7-4.2 39.4-28.7 74.9-56 81.2-2.5.6-9 1.1-14.6 1.1-20.1 0-36.1-6.6-50.4-20.9-9.8-9.8-14.6-18-18.1-30.6-1.9-7-2.1-9.7-1.6-22 .5-15.1 2.1-22.9 7.6-37.1 10.1-26.2 30-46.4 49.6-50.3 6.9-1.4 24.8-.6 32 1.3zM187 93.5c-25.7 5.2-47.8 22.8-57.1 45.5-3.8 9.3-4.9 15.6-4.9 27.4 0 34.8 24.7 74.8 55.5 90 37.9 18.8 87.5 1.9 105.1-35.9 4.8-10.4 6.4-18 6.5-30.2 0-42.9-34.5-89.1-72.3-96.7-9.2-1.9-23.8-1.9-32.8-.1zm30.8 17c17.9 4.2 34.7 18.8 46.7 40.7 8 14.7 12.6 34.5 10.6 46.3-4.7 29.2-29.9 49.5-61.5 49.5-11 0-18.6-1.8-27.7-6.6-13.1-6.9-26.4-21.7-34.6-38.5-5.4-11-7.2-16.6-8.8-26.7-3.9-25.8 8-47.9 32.3-60.1 11.2-5.7 29.9-7.7 43-4.6zM46.2 213c-11.1 3-18.8 7.5-27.2 16-8.3 8.3-12.6 15.5-16.1 27-3 9.6-3.3 29.6-.6 40.3 8.6 34.5 37.6 63.3 69.3 68.8 10.3 1.8 25.4.7 33.7-2.5 18.8-7.1 32.7-22.9 38.3-43.6 2.6-9.6 2.3-28.9-.5-39.5-6.4-23.8-23.6-46.5-44.4-58.4-15.5-8.8-37.4-12.2-52.5-8.1zm29.3 17c27.9 7.1 50.6 35.3 53.1 65.9 1.6 19-6.4 37.2-20.6 46.7-14.7 9.8-38.1 8.4-56.1-3.4-35-22.9-46-72.1-21.9-97.6 5.3-5.6 14.1-11 20.6-12.5 6.7-1.5 16.7-1.2 24.9.9zm344-4.9c-60.2 4.6-107.8 18-168 47.3-48.3 23.5-83 48.1-111.5 79.1-44.8 48.7-70.6 111.2-87 210.7-6.6 39.9-8.6 68.3-7.7 106.8 4.1 163.4 51.6 349.1 118.4 462.5 44.7 75.8 94.8 120.4 152.4 135.5 55.2 14.5 107.2 16.7 148.9 6.4 50.4-12.4 84.8-45 94.3-89.4 2.6-12.4 2.8-33.8.4-46.1-6.1-30.8-21.8-65.5-56.5-124.9-46.2-79-59.1-104.7-66.7-133.3-3.4-12.6-4.7-31.3-3.4-47.6 3.6-45.3 25.2-81.3 65-108.1 34.1-22.9 81.1-39 130.4-44.4 24.1-2.7 40-7.2 59-16.6 65.7-32.7 96-114.2 78.5-210.5-7.8-42.2-27.7-88.3-52.8-121.7-30.8-41-66.4-66.1-120.2-84.6-27.4-9.4-56-15.7-91-19.8-15.2-1.8-65.8-2.6-82.5-1.3zm66.6 16.9c67.7 5.1 131 25.5 170.3 54.8 11.8 8.8 30.3 27.1 39.7 39.2 46.4 60 67.4 142.9 53.8 212-9.1 46-33.4 81.2-68.5 99.2-16.5 8.5-31 12.7-52.9 15.3-44.3 5.3-82 16.1-114.8 32.7-56.6 28.7-89.2 71.5-96.7 126.8-1.6 11.9-1.4 39.7.4 49.8 5.3 29.1 19 59.7 54 120.2 10.4 17.9 19.2 32.9 19.6 33.5 2.4 3.1 20.5 36.3 27 49.5 13.2 26.4 19.2 41.7 23.8 60 3.6 14.6 3.7 35.2.3 48.5-18.1 70.1-101.6 96.4-217.1 68.4-50-12.2-92.5-46.2-132.7-106.4-65.5-98.1-114-261-128-429.5-2.1-25.9-2.4-90.4-.5-109 2.9-28.1 10.4-70.8 17.8-100.9 25.9-105.9 74.3-167 170.5-215.1 59.9-30 104.4-43.3 161.9-48.5 18.1-1.6 54.2-1.8 72.1-.5z"/></svg>